<?xml version="1.0" encoding="UTF-8"?>
<svg version="1.1" xmlns="http://www.w3.org/2000/svg" width="400" height="400">
<path d="M0 0 C132 0 264 0 400 0 C400 132 400 264 400 400 C268 400 136 400 0 400 C0 268 0 136 0 0 Z " fill="#001F31" transform="translate(0,0)"/>
<path d="M0 0 C8.29883671 6.22412753 12.27649479 17.91540646 16.625 27.0625 C17.33627473 28.54893591 18.04794649 30.0351819 18.76000977 31.52124023 C20.14408427 34.41210124 21.52413462 37.30483694 22.90185547 40.19873047 C24.42182154 43.38568732 25.96966655 46.55776087 27.53515625 49.72265625 C27.9110791 50.49158203 28.28700195 51.26050781 28.67431641 52.05273438 C29.31803185 53.36932636 29.96921945 54.68231139 30.63037109 55.99023438 C33.27903492 61.48904026 34.08649519 66.6229099 33.25 72.6875 C31.32159025 77.02642193 28.67484531 79.45759153 24.75 82.0625 C21.58719605 83.11676798 19.31912593 83.2018444 15.99682617 83.22363281 C14.22434761 83.23804413 14.22434761 83.23804413 12.4160614 83.25274658 C11.13794083 83.25699646 9.85982025 83.26124634 8.54296875 83.265625 C7.22968094 83.27132507 5.91639313 83.27702515 4.56330872 83.28289795 C1.78170383 83.29339838 -0.99987223 83.29924706 -3.78149414 83.30273438 C-7.33568519 83.30821219 -10.88949181 83.33222847 -14.44356251 83.36070633 C-17.8438778 83.38387871 -21.24414111 83.38578553 -24.64453125 83.390625 C-25.91657913 83.4029718 -27.18862701 83.4153186 -28.4992218 83.42803955 C-30.28588509 83.4235379 -30.28588509 83.4235379 -32.10864258 83.41894531 C-33.15216385 83.42259094 -34.19568512 83.42623657 -35.27082825 83.42999268 C-39.954104 82.852292 -43.22722233 81.11368816 -46.5 77.75 C-49.61523789 72.96588467 -50.66247487 69.18637926 -49.85913086 63.47827148 C-48.55638765 58.31168068 -45.83858824 53.69185073 -43.375 49 C-42.1881572 46.68980128 -41.0033007 44.37858117 -39.8203125 42.06640625 C-38.9236084 40.32061279 -38.9236084 40.32061279 -38.00878906 38.53955078 C-34.85220095 32.29911104 -31.89075003 25.96551066 -28.94189453 19.62475586 C-22.73034309 6.43397389 -16.39621396 -4.7296771 0 0 Z " fill="#5DFCC9" transform="translate(182.25,158.9375)"/>
<path d="M0 0 C5.98039545 5.12605324 9.08377683 11.18384159 12.4375 18.1875 C13.31614709 19.99685275 14.19627446 21.80548765 15.078125 23.61328125 C15.46000977 24.40774658 15.84189453 25.20221191 16.23535156 26.02075195 C17.04951525 27.83902278 17.04951525 27.83902278 18.1875 28.875 C18.48406494 28.20968262 18.78062988 27.54436523 19.08618164 26.85888672 C20.45591919 23.81402404 21.85260219 20.78226192 23.25 17.75 C23.71599609 16.70328125 24.18199219 15.6565625 24.66210938 14.578125 C27.9175579 7.58001796 31.06054361 2.4384782 38.1875 -1.125 C44.15058973 -1.68269904 49.11626868 -1.62656448 54.1875 1.875 C58.65755185 6.70748848 59.60566659 10.64541807 59.53125 17.06152344 C58.90411477 22.19441151 56.54550272 26.45717903 54.1875 31 C53.43255249 32.51158691 53.43255249 32.51158691 52.66235352 34.05371094 C51.65064987 36.0748632 50.63070833 38.09191564 49.60205078 40.10449219 C48.3894507 42.47946383 47.1999611 44.86294321 46.02734375 47.2578125 C44.46168547 50.45075981 42.86445245 53.62593134 41.24707031 56.79296875 C40.47837246 58.30344231 39.71544778 59.81685835 38.95605469 61.33203125 C37.64924436 63.93589232 36.32626383 66.53100206 35 69.125 C34.59579834 69.93614258 34.19159668 70.74728516 33.77514648 71.58300781 C31.10600017 76.74543282 28.52811415 80.20469292 23.1875 82.875 C17.30118213 83.42551894 12.06484303 83.53300727 7.1875 79.875 C2.63525969 74.00927989 -0.61059211 67.53293315 -3.6875 60.8125 C-4.55467908 58.9538151 -5.42318228 57.09574743 -6.29296875 55.23828125 C-6.71755371 54.32900879 -7.14213867 53.41973633 -7.57958984 52.48291016 C-9.32523164 48.79044566 -11.15574849 45.14392073 -13 41.5 C-13.95361219 39.59325749 -14.90529617 37.68556072 -15.85693359 35.77783203 C-16.51045248 34.47647123 -17.16992224 33.1780864 -17.83447266 31.88232422 C-25.67093138 16.56273547 -25.67093138 16.56273547 -23.8125 9.875 C-22.00627824 5.57194228 -19.87287356 2.66411521 -16.125 -0.125 C-10.67786049 -1.76941948 -5.34377466 -2.13750987 0 0 Z " fill="#5DFCC9" transform="translate(74.8125,159.125)"/>
<path d="M0 0 C0.77346771 -0.00570007 1.54693542 -0.01140015 2.34384155 -0.01727295 C3.98295732 -0.02671769 5.62209203 -0.03325485 7.26123047 -0.03710938 C9.74351229 -0.04675867 12.22494569 -0.07776237 14.70703125 -0.109375 C25.95101909 -0.18630355 34.79322501 0.17059909 43.421875 8.30078125 C48.75043751 14.17184446 50.43248875 20.14386481 50.29296875 27.90625 C49.76719375 36.2618095 45.55747433 41.79408817 39.8359375 47.515625 C33.09840715 51.74616731 25.33417728 53.25831404 17.4609375 53.22265625 C16.65269531 53.21983643 15.84445312 53.2170166 15.01171875 53.21411133 C14.39683594 53.21048584 13.78195312 53.20686035 13.1484375 53.203125 C13.19484375 54.49347656 13.24125 55.78382813 13.2890625 57.11328125 C13.32660184 58.83070588 13.36299967 60.54815572 13.3984375 62.265625 C13.44871094 63.53696289 13.44871094 63.53696289 13.5 64.83398438 C13.59316166 70.86620162 12.64952691 74.26078567 9.1484375 79.203125 C4.41589096 83.58938765 0.70200013 84.52204994 -5.57421875 84.41015625 C-9.71482794 84.03373723 -12.55003222 82.69512313 -15.29296875 79.55078125 C-18.71962837 74.93308894 -19.97313831 71.45775924 -20.01269531 65.64941406 C-20.02230286 64.51103088 -20.0319104 63.37264771 -20.04180908 62.19976807 C-20.04605896 60.9685321 -20.05030884 59.73729614 -20.0546875 58.46875 C-20.06038757 57.20222595 -20.06608765 55.9357019 -20.07196045 54.63079834 C-20.08141518 51.94751392 -20.08830936 49.26434145 -20.09179688 46.58105469 C-20.09726857 43.15699166 -20.12127144 39.73332891 -20.14976883 36.30939102 C-20.17297587 33.02920801 -20.17485067 29.74900359 -20.1796875 26.46875 C-20.1920343 25.24561096 -20.2043811 24.02247192 -20.21710205 22.76226807 C-20.19887602 15.77215587 -20.10578545 9.98276937 -15.3515625 4.4609375 C-10.14440863 0.5284515 -6.35062845 0.03628881 0 0 Z " fill="#5DFCC9" transform="translate(251.8515625,157.796875)"/>
<path d="M0 0 C4.57685931 2.31814952 7.25850754 5.60003493 8.9296875 10.3515625 C9.51308244 14.93538672 9.49029508 19.48177916 9.4609375 24.09765625 C9.46363716 25.43612448 9.46752351 26.77459079 9.47253418 28.11305237 C9.47840918 30.90962513 9.46993348 33.70568452 9.45117188 36.50219727 C9.42840445 40.06753485 9.44150224 43.63166626 9.46546173 47.1969595 C9.4799937 49.95873415 9.47527991 52.72022817 9.46495056 55.4820118 C9.46102459 57.42945778 9.47306812 59.37691514 9.48547363 61.32432556 C9.41042024 68.4558665 8.88312426 73.33792807 4.9296875 79.3515625 C0.54601558 83.22874716 -3.8638906 84.00749791 -9.640625 83.7265625 C-13.54089838 83.12459105 -16.12366345 81.95912082 -19.0703125 79.3515625 C-23.69989575 72.28733547 -23.64093339 65.97854977 -23.56640625 57.69140625 C-23.56786148 56.38756485 -23.56931671 55.08372345 -23.57081604 53.7403717 C-23.57219365 50.99264084 -23.55974915 48.24543602 -23.53686523 45.49780273 C-23.50845349 41.99195667 -23.51123368 38.48698132 -23.52395535 34.98107052 C-23.53261661 31.61359277 -23.51745445 28.24636936 -23.50390625 24.87890625 C-23.50684189 23.62770493 -23.50977753 22.3765036 -23.51280212 21.08738708 C-23.44464745 14.77443496 -23.27567937 9.86644591 -20.0703125 4.3515625 C-14.44962034 -0.98809505 -7.44812974 -2.33281045 0 0 Z " fill="#5DFDC9" transform="translate(340.0703125,158.6484375)"/>
<path d="M0 0 C4.58278101 2.30623753 7.26312035 5.5981376 8.93359375 10.34765625 C9.51698869 14.93148047 9.49420133 19.47787291 9.46484375 24.09375 C9.46754341 25.43221823 9.47142976 26.77068454 9.47644043 28.10914612 C9.48231543 30.90571888 9.47383973 33.70177827 9.45507812 36.49829102 C9.4323107 40.0636286 9.44540849 43.62776001 9.46936798 47.19305325 C9.48389995 49.9548279 9.47918616 52.71632192 9.46885681 55.47810555 C9.46493084 57.42555153 9.47697437 59.37300889 9.48937988 61.32041931 C9.41432649 68.45196025 8.88703051 73.33402182 4.93359375 79.34765625 C0.54992183 83.22484091 -3.85998435 84.00359166 -9.63671875 83.72265625 C-13.53699213 83.1206848 -16.1197572 81.95521457 -19.06640625 79.34765625 C-23.6959895 72.28342922 -23.63702714 65.97464352 -23.5625 57.6875 C-23.56395523 56.3836586 -23.56541046 55.0798172 -23.56690979 53.73646545 C-23.5682874 50.98873459 -23.5558429 48.24152977 -23.53295898 45.49389648 C-23.50454724 41.98805042 -23.50732743 38.48307507 -23.5200491 34.97716427 C-23.52871036 31.60968652 -23.5135482 28.24246311 -23.5 24.875 C-23.50293564 23.62379868 -23.50587128 22.37259735 -23.50889587 21.08348083 C-23.44100862 14.79529898 -23.29289626 9.8339217 -20.06640625 4.34765625 C-19.40640625 4.01765625 -18.74640625 3.68765625 -18.06640625 3.34765625 C-18.94140625 10.22265625 -18.94140625 10.22265625 -20.06640625 11.34765625 C-20.16550481 13.19812708 -20.1943988 15.05239565 -20.19580078 16.90551758 C-20.19895294 18.0937764 -20.2021051 19.28203522 -20.20535278 20.50630188 C-20.20332855 21.80101913 -20.20130432 23.09573639 -20.19921875 24.4296875 C-20.19989207 25.76389076 -20.20086232 27.09809391 -20.20211792 28.43229675 C-20.20359512 31.23425459 -20.20144067 34.03618062 -20.19677734 36.83813477 C-20.19109654 40.42606819 -20.1943484 44.01392655 -20.20034981 47.60185719 C-20.20396896 50.35996564 -20.20281032 53.1180564 -20.20022202 55.87616539 C-20.19923169 57.84150109 -20.20226559 59.80683749 -20.20535278 61.77217102 C-20.20220062 62.96988632 -20.19904846 64.16760162 -20.19580078 65.40161133 C-20.19500519 66.45560623 -20.19420959 67.50960114 -20.19338989 68.59553528 C-20.08172446 71.01566412 -19.76403209 73.03831518 -19.06640625 75.34765625 C-17.74640625 75.67765625 -16.42640625 76.00765625 -15.06640625 76.34765625 C-15.06640625 77.33765625 -15.06640625 78.32765625 -15.06640625 79.34765625 C-11.43640625 80.33765625 -7.80640625 81.32765625 -4.06640625 82.34765625 C-3.57140625 80.86265625 -3.57140625 80.86265625 -3.06640625 79.34765625 C-2.07640625 78.85265625 -2.07640625 78.85265625 -1.06640625 78.34765625 C-1.29328125 77.74953125 -1.52015625 77.15140625 -1.75390625 76.53515625 C-1.85703125 75.81328125 -1.96015625 75.09140625 -2.06640625 74.34765625 C-0.69140625 72.78515625 -0.69140625 72.78515625 0.93359375 71.34765625 C1.42859375 69.86265625 1.42859375 69.86265625 1.93359375 68.34765625 C2.92359375 68.34765625 3.91359375 68.34765625 4.93359375 68.34765625 C5.89150153 65.4739329 6.0652126 63.64967426 6.07885742 60.66430664 C6.08523727 59.71644791 6.09161713 58.76858917 6.09819031 57.79200745 C6.09930313 56.77009811 6.10041595 55.74818878 6.1015625 54.6953125 C6.1048909 53.64363388 6.1082193 52.59195526 6.11164856 51.50840759 C6.11671301 49.28336016 6.11905703 47.05830514 6.11889648 44.83325195 C6.12108286 41.42711902 6.13924355 38.02130998 6.15820312 34.61523438 C6.16113714 32.45442819 6.16312188 30.29362047 6.1640625 28.1328125 C6.17124802 27.1129274 6.17843353 26.0930423 6.18583679 25.04225159 C6.18276016 24.09124069 6.17968353 23.1402298 6.17651367 22.16040039 C6.17793869 21.32561661 6.17936371 20.49083282 6.18083191 19.63075256 C5.91079495 17.137123 5.18338601 15.50404701 3.93359375 13.34765625 C3.27359375 13.34765625 2.61359375 13.34765625 1.93359375 13.34765625 C1.93359375 12.35765625 1.93359375 11.36765625 1.93359375 10.34765625 C3.25359375 10.01765625 4.57359375 9.68765625 5.93359375 9.34765625 C2.46211533 8.59808468 2.46211533 8.59808468 -1.06640625 8.34765625 C-1.72640625 6.36765625 -2.38640625 4.38765625 -3.06640625 2.34765625 C-8.04242251 0.63715066 -11.4925692 2.33879978 -16.06640625 4.34765625 C-16.06640625 3.35765625 -16.06640625 2.36765625 -16.06640625 1.34765625 C-11.07081934 -1.52337071 -5.48895594 -1.7328084 0 0 Z " fill="#6FEFC8" transform="translate(340.06640625,158.65234375)"/>
<path d="M0 0 C0.77346771 -0.00570007 1.54693542 -0.01140015 2.34384155 -0.01727295 C3.98295732 -0.02671769 5.62209203 -0.03325485 7.26123047 -0.03710938 C9.74351229 -0.04675867 12.22494569 -0.07776237 14.70703125 -0.109375 C33.12282511 -0.23337338 33.12282511 -0.23337338 39.7109375 5.390625 C40.1853125 5.98875 40.6596875 6.586875 41.1484375 7.203125 C34.99609375 6.6171875 34.99609375 6.6171875 33.1484375 6.203125 C32.6534375 5.213125 32.6534375 5.213125 32.1484375 4.203125 C27.57753119 2.25184298 23.24911046 1.8710795 18.34375 1.7890625 C17.6197702 1.76969635 16.89579041 1.7503302 16.14987183 1.7303772 C13.85784352 1.67102614 11.56576376 1.62437622 9.2734375 1.578125 C7.71091669 1.53990413 6.14841602 1.50085006 4.5859375 1.4609375 C0.77360285 1.36536192 -3.0388303 1.28116894 -6.8515625 1.203125 C-6.8515625 1.863125 -6.8515625 2.523125 -6.8515625 3.203125 C-8.1715625 3.203125 -9.4915625 3.203125 -10.8515625 3.203125 C-11.1196875 3.8425 -11.3878125 4.481875 -11.6640625 5.140625 C-12.8515625 7.203125 -12.8515625 7.203125 -15.8515625 8.203125 C-14.8615625 10.843125 -13.8715625 13.483125 -12.8515625 16.203125 C-13.8415625 16.863125 -14.8315625 17.523125 -15.8515625 18.203125 C-16.32702134 20.33644095 -16.32702134 20.33644095 -16.28393555 22.83642578 C-16.30372971 23.79727081 -16.32352386 24.75811584 -16.34391785 25.74807739 C-16.35030777 26.78769623 -16.35669769 27.82731506 -16.36328125 28.8984375 C-16.39020805 30.49230789 -16.39020805 30.49230789 -16.41767883 32.11837769 C-16.47198252 35.52158607 -16.50574213 38.92465264 -16.5390625 42.328125 C-16.57221782 44.63153024 -16.60670579 46.93491672 -16.64257812 49.23828125 C-16.72772027 54.89310199 -16.79598482 60.54794064 -16.8515625 66.203125 C-16.1915625 66.533125 -15.5315625 66.863125 -14.8515625 67.203125 C-15.1815625 69.513125 -15.5115625 71.823125 -15.8515625 74.203125 C-15.1915625 74.615625 -14.5315625 75.028125 -13.8515625 75.453125 C-12.8615625 76.319375 -12.8615625 76.319375 -11.8515625 77.203125 C-11.8515625 78.523125 -11.8515625 79.843125 -11.8515625 81.203125 C-10.2015625 81.203125 -8.5515625 81.203125 -6.8515625 81.203125 C-6.8515625 81.863125 -6.8515625 82.523125 -6.8515625 83.203125 C-4.5415625 83.203125 -2.2315625 83.203125 0.1484375 83.203125 C0.1484375 82.543125 0.1484375 81.883125 0.1484375 81.203125 C1.7984375 81.203125 3.4484375 81.203125 5.1484375 81.203125 C5.4784375 79.883125 5.8084375 78.563125 6.1484375 77.203125 C7.1384375 77.203125 8.1284375 77.203125 9.1484375 77.203125 C9.1484375 75.553125 9.1484375 73.903125 9.1484375 72.203125 C10.6334375 72.698125 10.6334375 72.698125 12.1484375 73.203125 C10.71022937 78.23685344 8.24598235 80.19268389 4.1484375 83.203125 C-1.00976018 84.92252423 -5.94107662 84.82770692 -11.1015625 83.140625 C-15.46542362 80.06608649 -18.16748784 76.25534898 -19.8515625 71.203125 C-19.95479829 69.35398856 -20.00008268 67.5013871 -20.01269531 65.64941406 C-20.02230286 64.51103088 -20.0319104 63.37264771 -20.04180908 62.19976807 C-20.04605896 60.9685321 -20.05030884 59.73729614 -20.0546875 58.46875 C-20.06038757 57.20222595 -20.06608765 55.9357019 -20.07196045 54.63079834 C-20.08141518 51.94751392 -20.08830936 49.26434145 -20.09179688 46.58105469 C-20.09726857 43.15699166 -20.12127144 39.73332891 -20.14976883 36.30939102 C-20.17297587 33.02920801 -20.17485067 29.74900359 -20.1796875 26.46875 C-20.1920343 25.24561096 -20.2043811 24.02247192 -20.21710205 22.76226807 C-20.19887602 15.77215587 -20.10578545 9.98276937 -15.3515625 4.4609375 C-10.14440863 0.5284515 -6.35062845 0.03628881 0 0 Z " fill="#67F9CA" transform="translate(251.8515625,157.796875)"/>
<path d="M0 0 C0.66 0 1.32 0 2 0 C2 0.66 2 1.32 2 2 C2.66 2 3.32 2 4 2 C4.02317503 10.40586115 4.04094143 18.81170894 4.05181217 27.21759415 C4.05702969 31.12082295 4.06410684 35.02402988 4.07543945 38.92724609 C4.08630847 42.69438644 4.09228537 46.46150576 4.09487724 50.22866058 C4.09672424 51.66555869 4.10033095 53.10245564 4.10573006 54.53934479 C4.11299363 56.55258562 4.11340851 58.56584763 4.11352539 60.57910156 C4.115746 61.72493713 4.11796661 62.87077271 4.12025452 64.05133057 C4.01719224 66.57844206 3.66637429 68.58518482 3 71 C3 71.99 3 72.98 3 74 C2.01 74 1.02 74 0 74 C-2.15028304 74.94978897 -2.15028304 74.94978897 -4 76 C-4 76.99 -4 77.98 -4 79 C-8.31975522 81.22532845 -11.29918409 81.06433568 -16 80 C-16.66 79.34 -17.32 78.68 -18 78 C-20.57540213 78.16507646 -20.57540213 78.16507646 -23 79 C-23.495 79.99 -23.495 79.99 -24 81 C-24.66 81 -25.32 81 -26 81 C-26.33 80.34 -26.66 79.68 -27 79 C-27.33 79 -27.66 79 -28 79 C-28 77.02 -28 75.04 -28 73 C-27.34 73 -26.68 73 -26 73 C-25.67 74.32 -25.34 75.64 -25 77 C-23.515 76.505 -23.515 76.505 -22 76 C-20.06433956 75.84916932 -18.1263243 75.72742845 -16.1875 75.625 C-9.65727086 75.10479119 -9.65727086 75.10479119 -4 72 C0.86181191 64.7083957 0.52288582 57.74886974 0.390625 49.21875 C0.38315214 47.79529622 0.37746415 46.37183206 0.37347412 44.94836426 C0.3582996 41.22618533 0.31909079 37.50464413 0.2746582 33.78271484 C0.23352698 29.97502262 0.21542527 26.16722599 0.1953125 22.359375 C0.15258655 14.90596123 0.08443724 7.45307043 0 0 Z " fill="#011E1D" transform="translate(348,166)"/>
<path d="M0 0 C0.77346771 -0.00570007 1.54693542 -0.01140015 2.34384155 -0.01727295 C3.98295732 -0.02671769 5.62209203 -0.03325485 7.26123047 -0.03710938 C9.74351229 -0.04675867 12.22494569 -0.07776237 14.70703125 -0.109375 C33.12282511 -0.23337338 33.12282511 -0.23337338 39.7109375 5.390625 C40.1853125 5.98875 40.6596875 6.586875 41.1484375 7.203125 C34.99609375 6.6171875 34.99609375 6.6171875 33.1484375 6.203125 C32.6534375 5.213125 32.6534375 5.213125 32.1484375 4.203125 C27.57753119 2.25184298 23.24911046 1.8710795 18.34375 1.7890625 C17.6197702 1.76969635 16.89579041 1.7503302 16.14987183 1.7303772 C13.85784352 1.67102614 11.56576376 1.62437622 9.2734375 1.578125 C7.71091669 1.53990413 6.14841602 1.50085006 4.5859375 1.4609375 C0.77360285 1.36536192 -3.0388303 1.28116894 -6.8515625 1.203125 C-6.8515625 1.863125 -6.8515625 2.523125 -6.8515625 3.203125 C-8.1715625 3.203125 -9.4915625 3.203125 -10.8515625 3.203125 C-11.1196875 3.8425 -11.3878125 4.481875 -11.6640625 5.140625 C-12.8515625 7.203125 -12.8515625 7.203125 -15.8515625 8.203125 C-15.7896875 9.62625 -15.7896875 9.62625 -15.7265625 11.078125 C-15.8515625 14.203125 -15.8515625 14.203125 -17.8515625 16.203125 C-18.18301837 18.6286274 -18.18301837 18.6286274 -18.17041016 21.47900391 C-18.19027985 22.5799942 -18.21014954 23.6809845 -18.23062134 24.81533813 C-18.24217255 26.00807343 -18.25372375 27.20080872 -18.265625 28.4296875 C-18.28499115 29.64764008 -18.3043573 30.86559265 -18.3243103 32.12045288 C-18.38424465 36.0229383 -18.43054721 39.92545299 -18.4765625 43.828125 C-18.51472949 46.4687631 -18.55378045 49.10938857 -18.59375 51.75 C-18.68995754 58.23426326 -18.77496426 64.71860208 -18.8515625 71.203125 C-19.1815625 71.203125 -19.5115625 71.203125 -19.8515625 71.203125 C-19.92127679 63.76182247 -19.97448196 56.32059114 -20.00699902 48.87902737 C-20.02261087 45.42305854 -20.04376606 41.96731425 -20.07788086 38.51147461 C-20.11691189 34.53241728 -20.13130882 30.55344878 -20.14453125 26.57421875 C-20.16001511 25.34166855 -20.17549896 24.10911835 -20.19145203 22.83921814 C-20.19282372 15.81301061 -20.13119869 10.01228579 -15.3515625 4.4609375 C-10.14440863 0.5284515 -6.35062845 0.03628881 0 0 Z " fill="#64D7BA" transform="translate(251.8515625,157.796875)"/>
<path d="M0 0 C0.66 0 1.32 0 2 0 C1.99333817 0.76341705 1.98667633 1.52683411 1.97981262 2.31338501 C1.91959838 9.52240732 1.87397344 16.73130698 1.84456348 23.94051552 C1.828935 27.64648834 1.80774881 31.35225264 1.77368164 35.05810547 C1.74098681 38.63724175 1.72312581 42.21617798 1.71536827 45.79545212 C1.70984284 47.15815757 1.69905296 48.52085259 1.68280983 49.88347244 C1.66090364 51.79801931 1.65977347 53.71276925 1.65942383 55.62744141 C1.65276199 56.71554108 1.64610016 57.80364075 1.63923645 58.92471313 C2.05600058 62.47737044 3.30625951 64.87678092 5 68 C5 68.66 5 69.32 5 70 C5.598125 70.28875 6.19625 70.5775 6.8125 70.875 C9 72 9 72 12 74 C9.525 74.495 9.525 74.495 7 75 C6.67 73.68 6.34 72.36 6 71 C5.401875 71.226875 4.80375 71.45375 4.1875 71.6875 C2 72 2 72 0.25 70.875 C-1.35903101 68.46145349 -1.23053497 66.84326464 -1 64 C-1.99 64.495 -1.99 64.495 -3 65 C-3.625 62.1875 -3.625 62.1875 -4 59 C-3.34 58.01 -2.68 57.02 -2 56 C-1.55033993 52.82567259 -1.55033993 52.82567259 -1.41015625 49.125 C-1.35493553 48.07856323 -1.35493553 48.07856323 -1.29859924 47.01098633 C-0.83654768 37.68046399 -0.64414996 28.33889146 -0.4375 19 C-0.39416454 17.14582667 -0.35054635 15.29165992 -0.30664062 13.4375 C-0.20117944 8.95840228 -0.09950298 4.47923387 0 0 Z " fill="#0B453D" transform="translate(316,168)"/>
<path d="M0 0 C1.32 0.66 2.64 1.32 4 2 C3.70230713 2.56396484 3.40461426 3.12792969 3.09790039 3.70898438 C1.73982319 6.29943509 0.40112661 8.89944845 -0.9375 11.5 C-1.40607422 12.386875 -1.87464844 13.27375 -2.35742188 14.1875 C-5.48465328 20.3069744 -7.954634 25.69158603 -6.40625 32.6796875 C-6.1071875 33.40414062 -5.808125 34.12859375 -5.5 34.875 C-4.59375 37.1171875 -4.59375 37.1171875 -4 39 C-4.33 39.66 -4.66 40.32 -5 41 C-8.0625 41.625 -8.0625 41.625 -11 42 C-10.79375 41.4225 -10.5875 40.845 -10.375 40.25 C-9.76607751 38.00873368 -9.76607751 38.00873368 -10.9375 36.25 C-12.55389504 32.8270458 -12.12535919 29.76077557 -12 26 C-11.01 25.67 -10.02 25.34 -9 25 C-8.896875 23.7625 -8.79375 22.525 -8.6875 21.25 C-8.2406315 17.61121368 -7.36412899 15.83695478 -5 13 C-4.29373761 11.01363702 -3.63106429 9.01151741 -3 7 C-2.04316402 4.64580456 -1.02362052 2.32641027 0 0 Z " fill="#053943" transform="translate(140,198)"/>
<path d="M0 0 C1.4606285 2.64738916 2 3.89448334 2 7 C1.01 7 0.02 7 -1 7 C-1.12375 7.598125 -1.2475 8.19625 -1.375 8.8125 C-2 11 -2 11 -4 14 C-4.433125 14.99 -4.433125 14.99 -4.875 16 C-6.25609812 18.45528554 -7.57817068 19.57539452 -10 21 C-11.32 21 -12.64 21 -14 21 C-14 20.34 -14 19.68 -14 19 C-14.5775 18.855625 -15.155 18.71125 -15.75 18.5625 C-17.83333333 18.04166667 -19.91666667 17.52083333 -22 17 C-22.33 18.65 -22.66 20.3 -23 22 C-25 20 -25 20 -25.125 17.375 C-25.08375 16.59125 -25.0425 15.8075 -25 15 C-23.69675781 15.06960937 -23.69675781 15.06960937 -22.3671875 15.140625 C-15.32096399 15.3807374 -15.32096399 15.3807374 -8.5625 13.6875 C-4.72867915 9.6666635 -2.41622804 4.96954704 0 0 Z " fill="#033A42" transform="translate(110,226)"/>
<path d="M0 0 C0 0.99 0 1.98 0 3 C-0.66 3 -1.32 3 -2 3 C-1.505 4.485 -1.505 4.485 -1 6 C-1.99 6.33 -2.98 6.66 -4 7 C-5.6673975 6.00121907 -7.33398563 5.00108637 -9 4 C-11.56853885 3.54649005 -11.56853885 3.54649005 -14.27758789 3.59594727 C-15.30537857 3.58326309 -16.33316925 3.57057892 -17.3921051 3.55751038 C-18.49118698 3.56044601 -19.59026886 3.56338165 -20.72265625 3.56640625 C-21.86028915 3.5611644 -22.99792206 3.55592255 -24.17002869 3.55052185 C-26.57143335 3.54410668 -28.97286947 3.54543207 -31.37426758 3.55395508 C-35.05281247 3.56247756 -38.72981109 3.533674 -42.40820312 3.50195312 C-44.74218703 3.50034136 -47.0761737 3.50091817 -49.41015625 3.50390625 C-51.06181541 3.48705528 -51.06181541 3.48705528 -52.74684143 3.46986389 C-53.77147995 3.47924484 -54.79611847 3.48862579 -55.85180664 3.49829102 C-57.20152306 3.49854027 -57.20152306 3.49854027 -58.57850647 3.49879456 C-61.72750149 4.15057968 -62.94977761 5.59500349 -65 8 C-65.33 5.69 -65.66 3.38 -66 1 C-64.82608955 1.00333092 -64.82608955 1.00333092 -63.62846375 1.00672913 C-56.25661032 1.02675816 -48.88477007 1.04198749 -41.51289654 1.05181217 C-37.72285998 1.0570329 -33.93284589 1.0641159 -30.14282227 1.07543945 C-26.48591198 1.08629704 -22.82902332 1.09228295 -19.17209816 1.09487724 C-17.77623975 1.0967263 -16.38038253 1.10033699 -14.98453331 1.10573006 C-13.03096036 1.11297844 -11.07736569 1.11340838 -9.1237793 1.11352539 C-8.0112529 1.115746 -6.8987265 1.11796661 -5.75248718 1.12025452 C-2.9090776 1.12220281 -2.9090776 1.12220281 0 0 Z " fill="#023539" transform="translate(207,240)"/>
<path d="M0 0 C3.87238878 2.03506389 6.26152255 4.23320093 7.8984375 8.27734375 C8.2109375 11.46484375 8.2109375 11.46484375 7.8984375 14.27734375 C7.2384375 14.93734375 6.5784375 15.59734375 5.8984375 16.27734375 C5.2384375 15.28734375 4.5784375 14.29734375 3.8984375 13.27734375 C3.2384375 13.27734375 2.5784375 13.27734375 1.8984375 13.27734375 C1.8984375 12.28734375 1.8984375 11.29734375 1.8984375 10.27734375 C3.2184375 9.94734375 4.5384375 9.61734375 5.8984375 9.27734375 C2.42695908 8.52777218 2.42695908 8.52777218 -1.1015625 8.27734375 C-1.7615625 6.29734375 -2.4215625 4.31734375 -3.1015625 2.27734375 C-8.07757876 0.56683816 -11.52772545 2.26848728 -16.1015625 4.27734375 C-16.1015625 3.28734375 -16.1015625 2.29734375 -16.1015625 1.27734375 C-11.11925289 -1.58605258 -5.44687236 -1.87299514 0 0 Z " fill="#68F6C9" transform="translate(340.1015625,158.72265625)"/>
<path d="M0 0 C1.875 0.625 1.875 0.625 4 2 C5.25 5.125 5.25 5.125 6 8 C9.93673644 6.68775452 12.22719294 5.08089673 15 2 C15 6.45651288 14.03477741 8.35000997 12 12.25 C11.443125 13.32765625 10.88625 14.4053125 10.3125 15.515625 C9.879375 16.33546875 9.44625 17.1553125 9 18 C6.44624385 14.82505993 4.62552847 11.51896339 2.8125 7.875 C2.28269531 6.82054687 1.75289063 5.76609375 1.20703125 4.6796875 C0 2 0 2 0 0 Z " fill="#043B3D" transform="translate(84,171)"/>
<path d="M0 0 C2.64764541 3.97146812 4.74568944 8.21108355 6.90234375 12.46289062 C8.86577444 16.22924342 10.75712217 19.15702863 14 22 C13.01 22.99 12.02 23.98 11 25 C10.7525 24.360625 10.505 23.72125 10.25 23.0625 C9.21173571 20.82450832 9.21173571 20.82450832 7.0625 20.4375 C6.0415625 20.2209375 6.0415625 20.2209375 5 20 C2.31550603 17.91206025 1.63204117 16.28310276 1 13 C0.93451508 11.41788427 0.91421619 9.83329919 0.9375 8.25 C0.94652344 7.45078125 0.95554687 6.6515625 0.96484375 5.828125 C0.97644531 5.22484375 0.98804687 4.6215625 1 4 C0.34 4 -0.32 4 -1 4 C-0.67 2.68 -0.34 1.36 0 0 Z " fill="#053745" transform="translate(71,219)"/>
<path d="M0 0 C0.87527344 -0.00257813 1.75054687 -0.00515625 2.65234375 -0.0078125 C5.0625 0.125 5.0625 0.125 8.0625 1.125 C8.0625 1.785 8.0625 2.445 8.0625 3.125 C7.0725 3.455 6.0825 3.785 5.0625 4.125 C5.0625 3.465 5.0625 2.805 5.0625 2.125 C-1.03118449 1.91514556 -1.03118449 1.91514556 -6.9375 3.125 C-8.29770151 5.09258273 -8.29770151 5.09258273 -8.9375 7.125 C-9.5975 7.125 -10.2575 7.125 -10.9375 7.125 C-11.370625 8.2078125 -11.370625 8.2078125 -11.8125 9.3125 C-12.18375 10.240625 -12.555 11.16875 -12.9375 12.125 C-13.246875 12.929375 -13.55625 13.73375 -13.875 14.5625 C-15.09040494 17.49377075 -16.49257524 20.30082888 -17.9375 23.125 C-18.9275 22.795 -19.9175 22.465 -20.9375 22.125 C-19.74670749 19.55300906 -18.53614909 16.99381419 -17.3125 14.4375 C-16.98121094 13.71626953 -16.64992188 12.99503906 -16.30859375 12.25195312 C-12.84728957 5.10076807 -8.37594187 -0.02459895 0 0 Z " fill="#6EEBCC" transform="translate(117.9375,157.875)"/>
<path d="M0 0 C6.05539775 0.68551673 9.22266405 2.37581411 14 6 C13.67 6.66 13.34 7.32 13 8 C12.21625 7.505 11.4325 7.01 10.625 6.5 C5.92342253 4.55451967 2.02223041 4.28722015 -3 5 C-8.64729176 7.55726419 -11.11822378 11.74649645 -14 17 C-14.66 16.34 -15.32 15.68 -16 15 C-15.75558954 12.47442523 -15.17639341 11.2147398 -13.5625 9.25 C-12 8 -12 8 -10 8 C-9.814375 7.071875 -9.814375 7.071875 -9.625 6.125 C-9 4 -9 4 -7 2 C-3.875 1.875 -3.875 1.875 -1 2 C-0.67 1.34 -0.34 0.68 0 0 Z " fill="#032E35" transform="translate(172,154)"/>
<path d="M0 0 C1.42437216 2.84874432 0.48202642 4.2866545 -0.40551758 7.31347656 C-2.13905796 13.94084515 -2.47275857 20.16017311 -2.51171875 26.984375 C-2.52966995 28.16598206 -2.54762115 29.34758911 -2.56611633 30.56500244 C-2.61976368 34.29329998 -2.65396834 38.02147291 -2.6875 41.75 C-2.72071329 44.29689218 -2.75520658 46.843768 -2.79101562 49.390625 C-2.87546348 55.59363808 -2.94400371 61.79666825 -3 68 C-3.33 68 -3.66 68 -4 68 C-4.06970121 60.2979369 -4.12291303 52.59590677 -4.15543652 44.89359951 C-4.17105115 41.31656643 -4.1922116 37.73975014 -4.22631836 34.1628418 C-4.25906318 30.70689341 -4.27688458 27.25115273 -4.28463173 23.79506111 C-4.29282164 21.84364592 -4.31621678 19.89231356 -4.33988953 17.94102478 C-4.34109868 11.53371492 -4.21417036 6.61882714 -1 1 C-0.67 0.67 -0.34 0.34 0 0 Z " fill="#73E4C5" transform="translate(321,162)"/>
<path d="M0 0 C1.98 0 3.96 0 6 0 C6.33 0.99 6.66 1.98 7 3 C27.13 2.67 47.26 2.34 68 2 C65.3408665 4.6591335 64.07430414 4.25825762 60.36035156 4.2746582 C59.17862366 4.28419022 57.99689575 4.29372223 56.77935791 4.30354309 C55.49607605 4.30263168 54.21279419 4.30172028 52.890625 4.30078125 C51.57592224 4.30506638 50.26121948 4.3093515 48.90667725 4.31376648 C46.11905903 4.32123631 43.33156741 4.32093328 40.54394531 4.31567383 C36.98184363 4.30989712 33.42026496 4.32676207 29.85824966 4.3500185 C26.45235352 4.36835726 23.04657019 4.36456896 19.640625 4.36328125 C18.36544006 4.372491 17.09025513 4.38170074 15.77642822 4.39118958 C13.9849234 4.38184639 13.9849234 4.38184639 12.15722656 4.37231445 C11.11068909 4.37294388 10.06415161 4.3735733 8.98590088 4.3742218 C5.49311241 3.93647197 3.04708403 2.72062073 0 1 C0 0.67 0 0.34 0 0 Z " fill="#74EECF" transform="translate(138,238)"/>
<path d="M0 0 C1.1774734 0.73291712 2.34176854 1.48703801 3.5 2.25 C4.1496875 2.66765625 4.799375 3.0853125 5.46875 3.515625 C5.9740625 4.00546875 6.479375 4.4953125 7 5 C7 6.32 7 7.64 7 9 C8.65 9 10.3 9 12 9 C12 9.66 12 10.32 12 11 C14.31 11 16.62 11 19 11 C19 10.34 19 9.68 19 9 C20.65 9 22.3 9 24 9 C24.33 7.68 24.66 6.36 25 5 C25.99 5 26.98 5 28 5 C28 3.35 28 1.7 28 0 C28.99 0.33 29.98 0.66 31 1 C29.56179187 6.03372844 27.09754485 7.98955889 23 11 C17.84180232 12.71939923 12.91048588 12.62458192 7.75 10.9375 C4.29697569 8.50468742 2.01826283 5.7061021 0 2 C0 1.34 0 0.68 0 0 Z " fill="#6FE7C9" transform="translate(233,230)"/>
<path d="M0 0 C0.66 0.66 1.32 1.32 2 2 C0.75124037 4.66725358 -0.49897527 7.33380899 -1.75 10 C-2.27207031 11.11568359 -2.27207031 11.11568359 -2.8046875 12.25390625 C-5.1307553 17.20756916 -7.53480861 22.11403509 -10 27 C-10.33 27 -10.66 27 -11 27 C-10.88557539 25.39504433 -10.75805306 23.79101881 -10.625 22.1875 C-10.52058594 20.84751953 -10.52058594 20.84751953 -10.4140625 19.48046875 C-10 17 -10 17 -8 14 C-7.61500109 12.34450469 -7.27206865 10.6777567 -7 9 C-6.01 8.67 -5.02 8.34 -4 8 C-4.33 7.34 -4.66 6.68 -5 6 C-4.01 6 -3.02 6 -2 6 C-1.855625 5.38125 -1.71125 4.7625 -1.5625 4.125 C-1 2 -1 2 0 0 Z " fill="#04323A" transform="translate(155,171)"/>
<path d="M0 0 C5.26853168 7.90279752 8.91097655 15.02804259 7.4375 24.6875 C5.61481149 28.88760832 3.68200156 30.3585641 0 33 C0.50603992 30.83125748 0.99983813 29.00032373 2 27 C2.66 27 3.32 27 4 27 C4.22134176 24.87631556 4.42670007 22.75095976 4.625 20.625 C4.79902344 18.84996094 4.79902344 18.84996094 4.9765625 17.0390625 C4.98429688 16.03617188 4.99203125 15.03328125 5 14 C4.34 13.34 3.68 12.68 3 12 C0.96871806 7.85930989 -0.42230626 4.64536882 0 0 Z " fill="#68E0C2" transform="translate(208,207)"/>
<path d="M0 0 C0.99 0 1.98 0 3 0 C3.33 2.64 3.66 5.28 4 8 C3.34 8 2.68 8 2 8 C2 21.2 2 34.4 2 48 C1.67 48 1.34 48 1 48 C0.80581168 43.19902012 0.62742431 38.39779093 0.46289062 33.59570312 C0.40492824 31.96631607 0.34284607 30.33706962 0.27636719 28.70800781 C-0.42658792 11.34714695 -0.42658792 11.34714695 2 3 C0.68 2.67 -0.64 2.34 -2 2 C-1.34 1.34 -0.68 0.68 0 0 Z " fill="#011B22" transform="translate(314,160)"/>
<path d="M0 0 C1.11083984 1.72949219 1.11083984 1.72949219 2 4 C1.40087891 6.10644531 1.40087891 6.10644531 0.2265625 8.328125 C-0.1859375 9.12734375 -0.5984375 9.9265625 -1.0234375 10.75 C-1.69246094 11.9875 -1.69246094 11.9875 -2.375 13.25 C-2.81328125 14.09046875 -3.2515625 14.9309375 -3.703125 15.796875 C-4.78810096 17.87248118 -5.88726044 19.93918354 -7 22 C-7.33 22 -7.66 22 -8 22 C-8.26663745 18.88922979 -8.26178637 17.39267955 -6.5 14.75 C-4.37392103 10.85218855 -4.74420346 7.34854121 -5 3 C-3.35 2.67 -1.7 2.34 0 2 C0 1.34 0 0.68 0 0 Z " fill="#65EDC8" transform="translate(119,202)"/>
<path d="M0 0 C-2.3125 2.0625 -2.3125 2.0625 -5 4 C-5.99 3.67 -6.98 3.34 -8 3 C-8 3.99 -8 4.98 -8 6 C-7.01 6 -6.02 6 -5 6 C-5.3125 8.375 -5.3125 8.375 -6 11 C-6.99 11.66 -7.98 12.32 -9 13 C-10 12 -10 12 -10.09765625 9.27734375 C-10.08605469 8.17519531 -10.07445312 7.07304687 -10.0625 5.9375 C-10.05347656 4.83277344 -10.04445313 3.72804687 -10.03515625 2.58984375 C-10.02355469 1.73519531 -10.01195312 0.88054687 -10 0 C-6.33694766 -0.74926071 -3.57644848 -1.2380014 0 0 Z " fill="#041926" transform="translate(276,212)"/>
<path d="M0 0 C0.66 0.33 1.32 0.66 2 1 C1.67515625 2.04800781 1.67515625 2.04800781 1.34375 3.1171875 C1.0653125 4.02726563 0.786875 4.93734375 0.5 5.875 C0.2215625 6.77992188 -0.056875 7.68484375 -0.34375 8.6171875 C-1.08850794 10.90944647 -1.08850794 10.90944647 -1 13 C-1.99 13.495 -1.99 13.495 -3 14 C-3.474375 14.825 -3.94875 15.65 -4.4375 16.5 C-6 19 -6 19 -9 20 C-7.55676531 15.26210835 -5.62773267 11.01141849 -3.375 6.625 C-2.88773437 5.66400391 -2.88773437 5.66400391 -2.390625 4.68359375 C-1.59742593 3.12052499 -0.79922969 1.55999378 0 0 Z " fill="#043E45" transform="translate(120,206)"/>
<path d="M0 0 C0.66 0 1.32 0 2 0 C2.33 1.32 2.66 2.64 3 4 C4.32 4.33 5.64 4.66 7 5 C7 5.99 7 6.98 7 8 C12.39460953 10.27141454 17.26157749 10.20413361 23 10 C18.72720408 12.84853061 15.01486399 12.61639451 10 12 C6.13199835 10.67239275 3.55072776 8.72838187 1.0625 5.4375 C0 3 0 3 0 0 Z " fill="#6FECC9" transform="translate(318,230)"/>
<path d="M0 0 C2.11386464 2.11386464 2.97008322 3.79267603 4.1875 6.5 C4.55230469 7.2940625 4.91710938 8.088125 5.29296875 8.90625 C5.52628906 9.5971875 5.75960937 10.288125 6 11 C5.67 11.66 5.34 12.32 5 13 C2.69 12.34 0.38 11.68 -2 11 C-1.85892253 9.54119891 -1.71197585 8.08296449 -1.5625 6.625 C-1.48128906 5.81289062 -1.40007813 5.00078125 -1.31640625 4.1640625 C-1 2 -1 2 0 0 Z " fill="#063841" transform="translate(52,180)"/>
<path d="M0 0 C3.42931954 3.7559214 4.56429083 8.23466745 6 13 C3.36 12.67 0.72 12.34 -2 12 C-1.47916667 10.046875 -0.95833333 8.09375 -0.4375 6.140625 C0.13349349 3.71098139 0.13349349 3.71098139 0 0 Z " fill="#5CEFC6" transform="translate(202,195)"/>
<path d="M0 0 C0.66 0.66 1.32 1.32 2 2 C1.67 2.66 1.34 3.32 1 4 C2.32 3.34 3.64 2.68 5 2 C5.33 3.98 5.66 5.96 6 8 C4.68 7.67 3.36 7.34 2 7 C2 6.34 2 5.68 2 5 C-0.97 5 -3.94 5 -7 5 C-6.67 4.01 -6.34 3.02 -6 2 C-2.9375 0.8125 -2.9375 0.8125 0 0 Z " fill="#031119" transform="translate(338,152)"/>
<path d="M0 0 C0.66 0 1.32 0 2 0 C4.71486934 3.97610786 4.22440753 8.13901977 4.125 12.75 C4.11597656 13.54277344 4.10695313 14.33554688 4.09765625 15.15234375 C4.07417012 17.10169281 4.03830137 19.05088575 4 21 C3.34 21 2.68 21 2 21 C1.86722656 20.05898437 1.73445313 19.11796875 1.59765625 18.1484375 C1.42105469 16.90320313 1.24445313 15.65796875 1.0625 14.375 C0.80146484 12.53035156 0.80146484 12.53035156 0.53515625 10.6484375 C0.18963679 8.29285228 -0.19567887 5.94260489 -0.62890625 3.6015625 C-0.75136719 2.74304688 -0.87382812 1.88453125 -1 1 C-0.67 0.67 -0.34 0.34 0 0 Z " fill="#011A1E" transform="translate(300,168)"/>
<path d="M0 0 C0.66 0 1.32 0 2 0 C1.875 1.6875 1.875 1.6875 1 4 C-0.46964371 5.17571497 -1.94142515 6.3491015 -3.43359375 7.49609375 C-6.1831452 10.13593741 -7.53624907 13.53004926 -9 17 C-10.13583456 13.28272326 -9.66670026 11.52948291 -8 8 C-7.34 8 -6.68 8 -6 8 C-6.33 7.01 -6.66 6.02 -7 5 C-6.01 4.67 -5.02 4.34 -4 4 C-3.319375 3.319375 -2.63875 2.63875 -1.9375 1.9375 C-1.298125 1.298125 -0.65875 0.65875 0 0 Z " fill="#023438" transform="translate(110,156)"/>
<path d="M0 0 C1.56446039 4.69338116 -0.2167471 8.51135582 -2 13 C-3.48778253 15.63976462 -5.02347238 17.66871101 -7 20 C-7.66 20 -8.32 20 -9 20 C-7.55676531 15.26210835 -5.62773267 11.01141849 -3.375 6.625 C-2.88773438 5.66400391 -2.88773438 5.66400391 -2.390625 4.68359375 C-1.59742593 3.12052499 -0.79922969 1.55999378 0 0 Z " fill="#69E6C7" transform="translate(143,200)"/>
<path d="M0 0 C5.75617978 4.16404494 5.75617978 4.16404494 6.875 8 C6.98643298 10.67439143 7.07869828 13.32425836 7 16 C3.80553958 14.40276979 3.16730037 11.10023512 1.875 7.9375 C1.59785156 7.27427734 1.32070312 6.61105469 1.03515625 5.92773438 C0.35079847 4.28763557 -0.3253775 2.64412717 -1 1 C-0.67 0.67 -0.34 0.34 0 0 Z " fill="#68ECC9" transform="translate(63,199)"/>
<path d="M0 0 C0.86625 0.144375 1.7325 0.28875 2.625 0.4375 C2.00625 0.52 1.3875 0.6025 0.75 0.6875 C-1.55472859 1.23144438 -1.55472859 1.23144438 -2.4375 3.4375 C-2.746875 4.0975 -3.05625 4.7575 -3.375 5.4375 C-4.365 5.7675 -5.355 6.0975 -6.375 6.4375 C-6.313125 7.38625 -6.25125 8.335 -6.1875 9.3125 C-6.249375 10.34375 -6.31125 11.375 -6.375 12.4375 C-7.365 13.0975 -8.355 13.7575 -9.375 14.4375 C-9.78952424 11.05221874 -9.94127374 8.45600625 -8.25 5.4140625 C-5.61724621 2.05455897 -4.34627599 0.56340615 0 0 Z " fill="#6AE5C2" transform="translate(242.375,159.5625)"/>
<path d="M0 0 C0.66 0.66 1.32 1.32 2 2 C1.625 5.125 1.625 5.125 1 8 C0.34 8 -0.32 8 -1 8 C-0.2236068 11.0745356 -0.2236068 11.0745356 2 13 C1.01 13.495 1.01 13.495 0 14 C-2.625 13.0625 -2.625 13.0625 -5 12 C-4.35550393 8.98782888 -3.34977818 6.48344164 -1.9375 3.75 C-1.57527344 3.04359375 -1.21304688 2.3371875 -0.83984375 1.609375 C-0.56269531 1.07828125 -0.28554687 0.5471875 0 0 Z " fill="#053B46" transform="translate(126,194)"/>
<path d="M0 0 C2.475 0.495 2.475 0.495 5 1 C-0.75681183 6.90830688 -0.75681183 6.90830688 -4.27734375 7.16796875 C-5.15519531 7.17441406 -6.03304687 7.18085938 -6.9375 7.1875 C-7.81277344 7.20167969 -8.68804687 7.21585938 -9.58984375 7.23046875 C-12 7 -12 7 -15 5 C-11.37 5.33 -7.74 5.66 -4 6 C-4 5.34 -4 4.68 -4 4 C-2.68 4 -1.36 4 0 4 C0 2.68 0 1.36 0 0 Z " fill="#64E8C5" transform="translate(100,235)"/>
<path d="M0 0 C3.02153065 3.02153065 2.96666651 5.93732828 3.09765625 10.11328125 C3.08605469 11.16902344 3.07445312 12.22476563 3.0625 13.3125 C3.05347656 14.38113281 3.04445313 15.44976562 3.03515625 16.55078125 C3.02355469 17.35902344 3.01195312 18.16726562 3 19 C2.01 18.34 1.02 17.68 0 17 C-0.29296875 15.125 -0.29296875 15.125 -0.1875 13 C-0.16042969 12.29875 -0.13335937 11.5975 -0.10546875 10.875 C-0.07066406 10.25625 -0.03585937 9.6375 0 9 C0.1490712 6.9254644 0.1490712 6.9254644 -1 5 C-0.72057545 3.32345271 -0.39171753 1.65391846 0 0 Z " fill="#64FACA" transform="translate(297,170)"/>
<path d="M0 0 C0.66 0.33 1.32 0.66 2 1 C3.87052858 6.61158574 3.75605958 12.17285602 1.5 17.625 C1.005 18.40875 0.51 19.1925 0 20 C-1.34726118 15.95821645 -0.32004573 13.96013719 1 10 C0.34 9.67 -0.32 9.34 -1 9 C-0.7525 7.329375 -0.7525 7.329375 -0.5 5.625 C0.0455458 2.27967967 0.0455458 2.27967967 0 0 Z " fill="#6AEFD1" transform="translate(131,165)"/>
<path d="M0 0 C4.43282379 -0.80026199 8.72158552 -0.52804076 12.875 1.1875 C15.28365743 3.24194311 17.13638066 5.44615127 19 8 C17.68 7.67 16.36 7.34 15 7 C15 6.34 15 5.68 15 5 C10.11105305 2.70830612 4.88903296 1.49441923 -0.5 2.4375 C-0.995 2.623125 -1.49 2.80875 -2 3 C-1.34 2.01 -0.68 1.02 0 0 Z " fill="#6FEACB" transform="translate(62,158)"/>
<path d="M0 0 C1 2 1 2 0.546875 3.953125 C-1.02464423 8.48279807 -2.71944321 12.76468024 -5 17 C-5.99 16.67 -6.98 16.34 -8 16 C-5.36 10.72 -2.72 5.44 0 0 Z " fill="#69E7CA" transform="translate(105,164)"/>
<path d="M0 0 C0.33 0.66 0.66 1.32 1 2 C-5.7831364 3.42002108 -12.06697907 4.22731216 -19 4 C-18.67 3.34 -18.34 2.68 -18 2 C-15.234375 1.3671875 -15.234375 1.3671875 -11.75 0.875 C-10.61046875 0.70742187 -9.4709375 0.53984375 -8.296875 0.3671875 C-5.48904378 0.05446696 -2.81986816 -0.07420706 0 0 Z " fill="#60D3B4" transform="translate(284,207)"/>
<path d="M0 0 C1.2684375 -0.00773438 1.2684375 -0.00773438 2.5625 -0.015625 C5.13478811 0.26468845 6.7803108 0.9551813 9 2.25 C8.01 2.745 8.01 2.745 7 3.25 C7 3.91 7 4.57 7 5.25 C5 4.25 5 4.25 3 2.25 C-1.45355865 2.53732636 -5.15100832 2.8443802 -9 5.25 C-9 4.26 -9 3.27 -9 2.25 C-5.88610696 0.43356239 -3.59222291 -0.0219038 0 0 Z " fill="#70E5C4" transform="translate(333,157.75)"/>
<path d="M0 0 C1.32 0.33 2.64 0.66 4 1 C4.33 3.64 4.66 6.28 5 9 C5.99 9.33 6.98 9.66 8 10 C7.67 11.65 7.34 13.3 7 15 C3.69383716 11.19791273 0 5.16418515 0 0 Z " fill="#69EBCB" transform="translate(71,217)"/>
<path d="M0 0 C0 1.65 0 3.3 0 5 C-1.65 5 -3.3 5 -5 5 C-4.67 5.99 -4.34 6.98 -4 8 C-5.32 8 -6.64 8 -8 8 C-7.67 6.02 -7.34 4.04 -7 2 C-1.125 0 -1.125 0 0 0 Z " fill="#02141C" transform="translate(328,152)"/>
<path d="M0 0 C0.33 0 0.66 0 1 0 C1.33 4.29 1.66 8.58 2 13 C2.99 13 3.98 13 5 13 C5 14.65 5 16.3 5 18 C1.49934259 14.96609691 -0.0379294 12.54797012 -1 8 C-0.86652302 5.26125013 -0.46766311 2.71244603 0 0 Z " fill="#6CE1C9" transform="translate(133,220)"/>
<path d="M0 0 C1.32 0.66 2.64 1.32 4 2 C3.071875 2.70125 2.14375 3.4025 1.1875 4.125 C-1.90095295 6.67315622 -3.44426187 9.28351447 -5 13 C-5.66 12.34 -6.32 11.68 -7 11 C-6.75558954 8.47442523 -6.17639341 7.2147398 -4.5625 5.25 C-3 4 -3 4 -1 4 C-0.67 2.68 -0.34 1.36 0 0 Z " fill="#053C3E" transform="translate(163,158)"/>
<path d="M0 0 C2.97246802 2.54782974 4.41535288 5.45340883 6 9 C6 9.66 6 10.32 6 11 C4.68 11 3.36 11 2 11 C0.11772118 7.73738338 -0.58481145 4.73669693 -1 1 C-0.67 0.67 -0.34 0.34 0 0 Z " fill="#07454B" transform="translate(65,208)"/>
<path d="M0 0 C4.98791571 0.47503959 8.0232741 1.9701136 12 5 C12 5.33 12 5.66 12 6 C5.84765625 5.4140625 5.84765625 5.4140625 4 5 C3.67 4.34 3.34 3.68 3 3 C2.01 2.67 1.02 2.34 0 2 C0 1.34 0 0.68 0 0 Z " fill="#6CE6C3" transform="translate(281,159)"/>
<path d="M0 0 C2 4 2 4 2 7 C1.01 7 0.02 7 -1 7 C-1.33 8.32 -1.66 9.64 -2 11 C-3.32 11.33 -4.64 11.66 -6 12 C-4.02 8.04 -2.04 4.08 0 0 Z " fill="#08454D" transform="translate(110,226)"/>
<path d="M0 0 C0.99 0.33 1.98 0.66 3 1 C1.41037341 5.03520597 -0.28232318 9.01811282 -2 13 C-2.33 13 -2.66 13 -3 13 C-2.88557539 11.39504433 -2.75805306 9.79101881 -2.625 8.1875 C-2.55539063 7.29417969 -2.48578125 6.40085938 -2.4140625 5.48046875 C-2 3 -2 3 0 0 Z " fill="#074145" transform="translate(147,185)"/>
<path d="M0 0 C0.66 0.33 1.32 0.66 2 1 C1.71788123 2.6266848 1.42397625 4.25132896 1.125 5.875 C0.96257813 6.77992188 0.80015625 7.68484375 0.6328125 8.6171875 C0 11 0 11 -2 13 C-3.36882012 8.48289361 -2.52382612 5.40216435 -1 1 C-0.67 0.67 -0.34 0.34 0 0 Z " fill="#6BF3CE" transform="translate(55,163)"/>
<path d="M0 0 C1.85625 0.2784375 1.85625 0.2784375 3.75 0.5625 C6.76279577 0.94711223 9.10010827 1.0874594 12 0 C12 0.66 12 1.32 12 2 C7.67265609 4.22923777 4.71599818 3.92470553 0 3 C0 2.01 0 1.02 0 0 Z " fill="#05101B" transform="translate(332,243)"/>
<path d="M0 0 C-1.04874998 2.62187494 -1.64931313 3.79371361 -4.125 5.25 C-4.74375 5.4975 -5.3625 5.745 -6 6 C-6 6.66 -6 7.32 -6 8 C-7.5 9.625 -7.5 9.625 -9 11 C-9.66 10.67 -10.32 10.34 -11 10 C-4.86363636 0 -4.86363636 0 0 0 Z " fill="#69E5C7" transform="translate(169,159)"/>
<path d="M0 0 C0.99 0.33 1.98 0.66 3 1 C1.5682479 6.01113235 -0.98445693 7.94469549 -5 11 C-6.32 10.34 -7.64 9.68 -9 9 C-7.35 9 -5.7 9 -4 9 C-3.67 7.68 -3.34 6.36 -3 5 C-2.01 5 -1.02 5 0 5 C0 3.35 0 1.7 0 0 Z " fill="#68E1C3" transform="translate(261,230)"/>
<path d="M0 0 C2.80736541 1.4036827 2.96708362 3.10783413 4 6 C4.33 6.99 4.66 7.98 5 9 C4.34 9.66 3.68 10.32 3 11 C1.5 10 1.5 10 0 8 C-0.27345479 5.28153765 -0.13491285 2.74322801 0 0 Z " fill="#052A3D" transform="translate(128,224)"/>
<path d="M0 0 C0.66 0.33 1.32 0.66 2 1 C0.74194623 5.50802601 -0.90407165 8.4912812 -4 12 C-3.5317879 7.22423661 -2.75668002 3.95523655 0 0 Z " fill="#64E7C6" transform="translate(128,185)"/>
<path d="M0 0 C2.52631142 3.12781414 4.42373366 6.29577411 6 10 C5.67 10.99 5.34 11.98 5 13 C4.34 12.67 3.68 12.34 3 12 C3 10.35 3 8.7 3 7 C2.34 7 1.68 7 1 7 C1 6.01 1 5.02 1 4 C0.34 4 -0.32 4 -1 4 C-0.67 2.68 -0.34 1.36 0 0 Z " fill="#63E5C5" transform="translate(87,179)"/>
<path d="M0 0 C3.96 0 7.92 0 12 0 C10.68 1.32 9.36 2.64 8 4 C6.68 4 5.36 4 4 4 C4 3.34 4 2.68 4 2 C2.68 1.67 1.36 1.34 0 1 C0 0.67 0 0.34 0 0 Z " fill="#052B3D" transform="translate(92,243)"/>
<path d="M0 0 C5.66153846 1.47692308 5.66153846 1.47692308 7.375 4.125 C7.684375 5.053125 7.684375 5.053125 8 6 C6.68 6 5.36 6 4 6 C1.75 3 1.75 3 0 0 Z " fill="#68E9C9" transform="translate(78,233)"/>
<path d="M0 0 C2.0625 0.4375 2.0625 0.4375 4 1 C4 3.83967231 3.59732819 6.23735711 3 9 C0.86928411 6.40608501 -0.53582673 4.36525621 -1 1 C-0.67 0.67 -0.34 0.34 0 0 Z " fill="#07393F" transform="translate(195,176)"/>
<path d="M0 0 C2.0836309 0.14151828 4.16689938 0.28837936 6.25 0.4375 C7.99023438 0.55931641 7.99023438 0.55931641 9.765625 0.68359375 C12.30977376 0.93247787 14.55953248 1.28114942 17 2 C14.08913331 2.9702889 12.09776315 3.16467847 9.0625 3.1875 C8.20785156 3.20167969 7.35320312 3.21585938 6.47265625 3.23046875 C3.86090697 2.98703556 2.24499348 2.3178268 0 1 C0 0.67 0 0.34 0 0 Z " fill="#70E0C3" transform="translate(324,239)"/>
<path d="M0 0 C0.99 0 1.98 0 3 0 C1.68938409 4.23429756 0.05643741 8.07407404 -2 12 C-2.33 12 -2.66 12 -3 12 C-2.67 9.69 -2.34 7.38 -2 5 C-1.34 5 -0.68 5 0 5 C0 3.35 0 1.7 0 0 Z " fill="#6CE9CA" transform="translate(108,224)"/>
<path d="M0 0 C3 1 3 1 4.75 3.8125 C5.98589446 6.96403086 6.28222189 7.96929372 5 11 C2.36620292 7.34666857 0.53115106 4.51478398 0 0 Z " fill="#06312F" transform="translate(293,161)"/>
<path d="M0 0 C5.61 0 11.22 0 17 0 C17 0.66 17 1.32 17 2 C16.18015625 1.98839844 15.3603125 1.97679687 14.515625 1.96484375 C13.43796875 1.95582031 12.3603125 1.94679687 11.25 1.9375 C10.18265625 1.92589844 9.1153125 1.91429687 8.015625 1.90234375 C5.46631499 1.98489913 3.42066409 2.25382442 1 3 C0.67 2.01 0.34 1.02 0 0 Z " fill="#002520" transform="translate(323,157)"/>
<path d="M0 0 C0.91007812 0.10183594 1.82015625 0.20367187 2.7578125 0.30859375 C3.45648438 0.39238281 4.15515625 0.47617188 4.875 0.5625 C4.875 0.8925 4.875 1.2225 4.875 1.5625 C2.93802033 1.89884376 1.00039514 2.23147165 -0.9375 2.5625 C-2.55591797 2.8409375 -2.55591797 2.8409375 -4.20703125 3.125 C-7.125 3.5625 -7.125 3.5625 -10.125 3.5625 C-6.64644656 -0.07416951 -5.0127789 -0.57839757 0 0 Z " fill="#01302E" transform="translate(66.125,156.4375)"/>
<path d="M0 0 C1.49341969 2.98683937 0.40648676 4.95160978 -0.4375 8.125 C-0.72496094 9.22070312 -1.01242187 10.31640625 -1.30859375 11.4453125 C-1.53675781 12.28835937 -1.76492188 13.13140625 -2 14 C-2.33 14 -2.66 14 -3 14 C-3.08153933 12.41753293 -3.13943557 10.83383727 -3.1875 9.25 C-3.22230469 8.36828125 -3.25710938 7.4865625 -3.29296875 6.578125 C-2.94923684 3.55328417 -1.99772541 2.24416398 0 0 Z " fill="#69E1BE" transform="translate(321,162)"/>
<path d="M0 0 C2.86453858 3.41016497 4.34703566 6.90694544 6 11 C5.01 11.495 5.01 11.495 4 12 C4 11.01 4 10.02 4 9 C3.01 8.67 2.02 8.34 1 8 C0.67 5.36 0.34 2.72 0 0 Z " fill="#69E9C6" transform="translate(81,167)"/>
<path d="M0 0 C5 7.5 5 7.5 5 11 C4.01 10.67 3.02 10.34 2 10 C1.67 8.02 1.34 6.04 1 4 C0.34 4 -0.32 4 -1 4 C-0.67 2.68 -0.34 1.36 0 0 Z " fill="#074A4E" transform="translate(71,219)"/>
<path d="M0 0 C2.64 0 5.28 0 8 0 C5.63707344 2.52588702 4.33537489 3.88820837 1 5 C0.67 3.35 0.34 1.7 0 0 Z " fill="#6CE9C5" transform="translate(285,203)"/>
<path d="M0 0 C0.66 0 1.32 0 2 0 C2.33 1.65 2.66 3.3 3 5 C1.35 5.33 -0.3 5.66 -2 6 C-1.34 4.02 -0.68 2.04 0 0 Z " fill="#5FE2C2" transform="translate(154,177)"/>
<path d="M0 0 C1.98 0 3.96 0 6 0 C5.67 1.98 5.34 3.96 5 6 C4.54625 5.505 4.0925 5.01 3.625 4.5 C2.12364481 2.77390663 2.12364481 2.77390663 0 3 C0 2.01 0 1.02 0 0 Z " fill="#69F6CB" transform="translate(342,169)"/>
<path d="M0 0 C0.99 0.33 1.98 0.66 3 1 C1.84826645 3.46800047 0.95216435 5.04783565 -1 7 C-1.66 5.35 -2.32 3.7 -3 2 C-2.01 1.34 -1.02 0.68 0 0 Z " fill="#0B353B" transform="translate(84,164)"/>
<path d="M0 0 C0.99 0.66 1.98 1.32 3 2 C0.03 4.475 0.03 4.475 -3 7 C-4.125 3.25 -4.125 3.25 -3 1 C-2.01 0.67 -1.02 0.34 0 0 Z " fill="#072C29" transform="translate(321,159)"/>
<path d="M0 0 C1.43739513 -0.02712066 2.87493863 -0.04645067 4.3125 -0.0625 C5.51326172 -0.07990234 5.51326172 -0.07990234 6.73828125 -0.09765625 C9 0 9 0 12 1 C11.67 1.99 11.34 2.98 11 4 C10.01 4.33 9.02 4.66 8 5 C8 3.68 8 2.36 8 1 C5.36 1 2.72 1 0 1 C0 0.67 0 0.34 0 0 Z " fill="#70EECF" transform="translate(170,158)"/>
<path d="M0 0 C0.99 0.495 0.99 0.495 2 1 C2 1.66 2 2.32 2 3 C2.598125 3.28875 3.19625 3.5775 3.8125 3.875 C6 5 6 5 9 7 C7.35 7.33 5.7 7.66 4 8 C3.67 6.68 3.34 5.36 3 4 C2.34 4 1.68 4 1 4 C0.67 2.68 0.34 1.36 0 0 Z " fill="#093933" transform="translate(319,235)"/>
<path d="M0 0 C1.32 0.66 2.64 1.32 4 2 C2.68 4.64 1.36 7.28 0 10 C-1.00000429 5.99998285 -0.80688405 3.94476647 0 0 Z " fill="#09494A" transform="translate(140,198)"/>
<path d="M0 0 C0.33 0.99 0.66 1.98 1 3 C-2.26760563 8.63380282 -2.26760563 8.63380282 -5 10 C-4.38545304 6.00544473 -2.29353263 3.25533664 0 0 Z " fill="#73E9C8" transform="translate(298,193)"/>
<path d="M0 0 C2 2 2 2 2.1953125 4.6015625 C2.17210937 5.59929687 2.14890625 6.59703125 2.125 7.625 C2.10695312 8.62789062 2.08890625 9.63078125 2.0703125 10.6640625 C2.03550781 11.82035156 2.03550781 11.82035156 2 13 C1.01 13.495 1.01 13.495 0 14 C-1.39151652 9.20699867 -0.68662689 4.84864218 0 0 Z " fill="#03393B" transform="translate(50,167)"/>
<path d="M0 0 C1.32 0 2.64 0 4 0 C3.67 2.97 3.34 5.94 3 9 C0.90250005 6.64031256 0.03094296 5.45383006 -0.1875 2.25 C-0.125625 1.5075 -0.06375 0.765 0 0 Z " fill="#07373C" transform="translate(131,160)"/>
<path d="M0 0 C0.99 0.33 1.98 0.66 3 1 C2.67 1.66 2.34 2.32 2 3 C0.39620659 3.05416188 -1.20811406 3.09286638 -2.8125 3.125 C-3.70582031 3.14820313 -4.59914063 3.17140625 -5.51953125 3.1953125 C-8 3 -8 3 -11 1 C-7.37 1.33 -3.74 1.66 0 2 C0 1.34 0 0.68 0 0 Z " fill="#71E9CF" transform="translate(96,239)"/>
<path d="M0 0 C0.66 0.33 1.32 0.66 2 1 C2 4.3 2 7.6 2 11 C0.19308322 7.38616645 -0.56157766 4.94580104 -1 1 C-0.67 0.67 -0.34 0.34 0 0 Z " fill="#012725" transform="translate(300,168)"/>
<path d="M0 0 C1.65 0 3.3 0 5 0 C4.67 1.65 4.34 3.3 4 5 C3.01 5 2.02 5 1 5 C0.67 3.35 0.34 1.7 0 0 Z " fill="#050D18" transform="translate(346,160)"/>
<path d="M0 0 C1.32 0.33 2.64 0.66 4 1 C3.34 3.64 2.68 6.28 2 9 C1.67 9 1.34 9 1 9 C0.67 6.03 0.34 3.06 0 0 Z " fill="#04253E" transform="translate(153,161)"/>
<path d="M0 0 C2.0625 2.3125 2.0625 2.3125 4 5 C3.67 5.99 3.34 6.98 3 8 C1.68 7.01 0.36 6.02 -1 5 C-0.67 3.35 -0.34 1.7 0 0 Z " fill="#02181F" transform="translate(316,232)"/>
<path d="M0 0 C2.475 0.495 2.475 0.495 5 1 C4.67 3.31 4.34 5.62 4 8 C1.53721199 5.53721199 1.00228745 3.29323018 0 0 Z " fill="#094143" transform="translate(207,204)"/>
<path d="M0 0 C2.39763185 2.39763185 2.34280586 3.33273498 2.625 6.625 C2.69976562 7.44226563 2.77453125 8.25953125 2.8515625 9.1015625 C2.90054687 9.72804687 2.94953125 10.35453125 3 11 C0.9375 8.875 0.9375 8.875 -1 6 C-0.75 2.6875 -0.75 2.6875 0 0 Z " fill="#6EF2CB" transform="translate(297,170)"/>
<path d="M0 0 C0.66 0 1.32 0 2 0 C3.6875 2.375 3.6875 2.375 5 5 C4.67 5.66 4.34 6.32 4 7 C2.35 6.01 0.7 5.02 -1 4 C-0.67 2.68 -0.34 1.36 0 0 Z " fill="#60E4BE" transform="translate(343,162)"/>
<path d="M0 0 C0.33 1.32 0.66 2.64 1 4 C-0.65 5.32 -2.3 6.64 -4 8 C-3.49396008 5.83125748 -3.00016187 4.00032373 -2 2 C-1.34 2 -0.68 2 0 2 C0 1.34 0 0.68 0 0 Z " fill="#6BE8C9" transform="translate(212,232)"/>
<path d="M0 0 C0.66 0.33 1.32 0.66 2 1 C2.625 3.5625 2.625 3.5625 3 6 C1.68 6 0.36 6 -1 6 C-0.67 4.02 -0.34 2.04 0 0 Z " fill="#6BEFC8" transform="translate(205,202)"/>
<path d="M0 0 C0.33 0.66 0.66 1.32 1 2 C0.06421005 4.35981813 -0.93347808 6.69631264 -2 9 C-2.66 9 -3.32 9 -4 9 C-2.94124926 5.59687262 -1.99097846 2.98646769 0 0 Z " fill="#65D6BE" transform="translate(105,164)"/>
</svg>
